# xmcd
#
# Track frame offsets:
#	150
#	18154
#	35112
#	49199
#	64066
#	80933
#	97775
#	116375
#	135781
#	153179
#	170767
#	186100
#
# Disc length: 2686 seconds
#
# Revision: 0
# Processed by: cddbd v1.5.2PL0 Copyright (c) Steve Scherf et al.
# Submitted via: EasyCDDAExtractor 9.0.0.1
#
DISCID=930a7c0c
DTITLE=เสรี-ยุ้ย - ถามตอบ
DYEAR=2001
DGENRE=Country
TTITLE0=เรียกพี่ได้ไหม
TTITLE1=เรียกพี่ยังไหว
TTITLE2=ไอ้หนุ่มเครื่องไฟ
TTITLE3=เสน่ห์หนุ่มเครื่องไฟ
TTITLE4=พรพ่อหลวง
TTITLE5=คำสอนพ่อหลวง
TTITLE6=อเมซิ่งสุพรรณ
TTITLE7=สะใภ้สุพรรณ
TTITLE8=โรคแพ้ความสวย
TTITLE9=โรคแพ้ความหล่อ
TTITLE10=คนจนแถลงการณ์
TTITLE11=เสียงจากคนจน
EXTD=
EXTT0=
EXTT1=
EXTT2=
EXTT3=
EXTT4=
EXTT5=
EXTT6=
EXTT7=
EXTT8=
EXTT9=
EXTT10=
EXTT11=
PLAYORDER=
